<svg width="72" height="76" viewBox="0 0 72 76" fill="none" xmlns="http://www.w3.org/2000/svg">
<g filter="url(#filter0_d_454_899)">
<path d="M4 26.963C4 12.0717 16.0263 0 30.8616 0H40.9347C55.7699 0 67.7963 12.0717 67.7963 26.963V40.4444C67.7963 55.3357 55.7699 67.4074 40.9347 67.4074H30.8616C16.0263 67.4074 4 55.3357 4 40.4444V26.963Z" fill="white"/>
</g>
<path d="M7.61108 27.6852C7.61108 14.3894 18.276 3.61108 31.4317 3.61108H40.3645C53.5203 3.61108 64.1852 14.3894 64.1852 27.6852V39.7222C64.1852 53.0179 53.5203 63.7963 40.3645 63.7963H31.4317C18.276 63.7963 7.61108 53.0179 7.61108 39.7222V27.6852Z" fill="#E7B615"/>
<path d="M35.5 13C31.7022 13 28.06 14.5551 25.3746 17.3231C22.6891 20.0911 21.1805 23.8454 21.1805 27.76V35.6353L18.1129 43.5532C18.0168 43.8019 17.9813 44.071 18.0093 44.3371C18.0373 44.6032 18.1281 44.8581 18.2738 45.0797C18.4194 45.3013 18.6154 45.4828 18.8448 45.6084C19.0741 45.7339 19.3297 45.7997 19.5894 45.8H51.4106C51.6703 45.7997 51.9259 45.7339 52.1552 45.6084C52.3846 45.4828 52.5806 45.3013 52.7262 45.0797C52.8719 44.8581 52.9627 44.6032 52.9907 44.3371C53.0187 44.071 52.9832 43.8019 52.8871 43.5532L49.8195 35.632V27.76C49.8195 23.8454 48.3109 20.0911 45.6254 17.3231C42.94 14.5551 39.2978 13 35.5 13ZM35.5 54C34.0888 54.0004 32.7175 53.5173 31.6017 52.6266C30.486 51.736 29.689 50.4884 29.3362 49.08H41.6638C41.311 50.4884 40.514 51.736 39.3983 52.6266C38.2825 53.5173 36.9112 54.0004 35.5 54Z" fill="white"/>
<defs>
<filter id="filter0_d_454_899" x="0" y="0" width="71.7964" height="75.4075" filterUnits="userSpaceOnUse" color-interpolation-filters="sRGB">
<feFlood flood-opacity="0" result="BackgroundImageFix"/>
<feColorMatrix in="SourceAlpha" type="matrix" values="0 0 0 0 0 0 0 0 0 0 0 0 0 0 0 0 0 0 127 0" result="hardAlpha"/>
<feOffset dy="4"/>
<feGaussianBlur stdDeviation="2"/>
<feComposite in2="hardAlpha" operator="out"/>
<feColorMatrix type="matrix" values="0 0 0 0 0 0 0 0 0 0 0 0 0 0 0 0 0 0 0.1 0"/>
<feBlend mode="normal" in2="BackgroundImageFix" result="effect1_dropShadow_454_899"/>
<feBlend mode="normal" in="SourceGraphic" in2="effect1_dropShadow_454_899" result="shape"/>
</filter>
</defs>
</svg>
