<svg width="25" height="23" viewBox="0 0 25 23" fill="none" xmlns="http://www.w3.org/2000/svg">
<path d="M14.4225 1.64565L24.1945 19.0361C25.069 20.5944 23.9622 22.5 22.2711 22.5H2.72903C1.03705 22.5 -0.0689865 20.5945 0.805662 19.0361L10.5777 1.64565C11.436 0.118116 13.5641 0.118116 14.4225 1.64565ZM12.5001 6.79632C12.146 6.79632 11.8094 6.94125 11.5635 7.19431C11.3181 7.44688 11.1827 7.78644 11.1827 8.13759V13.1852C11.1827 13.5363 11.3181 13.8759 11.5635 14.1285C11.8094 14.3815 12.146 14.5265 12.5001 14.5265C12.8542 14.5265 13.1908 14.3815 13.4366 14.1285C13.682 13.8759 13.8174 13.5363 13.8174 13.1852V8.13759C13.8174 7.78644 13.682 7.44688 13.4366 7.19431C13.1908 6.94125 12.8542 6.79632 12.5001 6.79632ZM14.0899 17.3915C14.0899 16.966 13.9258 16.5551 13.6293 16.25C13.3323 15.9443 12.9264 15.7699 12.5001 15.7699C12.0737 15.7699 11.6678 15.9443 11.3709 16.25C11.0744 16.5551 10.9103 16.966 10.9103 17.3915C10.9103 17.8171 11.0744 18.228 11.3709 18.5331C11.6678 18.8388 12.0737 19.0132 12.5001 19.0132C12.9264 19.0132 13.3323 18.8388 13.6293 18.5331C13.9258 18.228 14.0899 17.8171 14.0899 17.3915Z" fill="white" stroke="#1C597C"/>
</svg>
