<svg width="25" height="23" viewBox="0 0 25 23" fill="none" xmlns="http://www.w3.org/2000/svg">
<path d="M10.1418 1.40071C11.1912 -0.466904 13.8089 -0.466904 14.8584 1.40071L24.6305 18.7914C25.68 20.6613 24.369 23 22.2711 23H2.72903C0.630102 23 -0.679823 20.6613 0.369642 18.7914L10.1418 1.40071ZM12.5001 7.29632C12.2833 7.29632 12.0754 7.38496 11.9221 7.54272C11.7688 7.70049 11.6827 7.91447 11.6827 8.13759V13.1852C11.6827 13.4083 11.7688 13.6223 11.9221 13.7801C12.0754 13.9378 12.2833 14.0265 12.5001 14.0265C12.7168 14.0265 12.9247 13.9378 13.078 13.7801C13.2313 13.6223 13.3174 13.4083 13.3174 13.1852V8.13759C13.3174 7.91447 13.2313 7.70049 13.078 7.54272C12.9247 7.38496 12.7168 7.29632 12.5001 7.29632ZM13.5899 17.3915C13.5899 17.0941 13.475 16.8087 13.2707 16.5984C13.0663 16.388 12.7891 16.2699 12.5001 16.2699C12.211 16.2699 11.9339 16.388 11.7295 16.5984C11.5251 16.8087 11.4103 17.0941 11.4103 17.3915C11.4103 17.689 11.5251 17.9743 11.7295 18.1847C11.9339 18.3951 12.211 18.5132 12.5001 18.5132C12.7891 18.5132 13.0663 18.3951 13.2707 18.1847C13.475 17.9743 13.5899 17.689 13.5899 17.3915Z" fill="#1C597C"/>
</svg>
