<svg width="18" height="15" viewBox="0 0 18 15" fill="none" xmlns="http://www.w3.org/2000/svg">
<path d="M2.29774 5.42877L3.68139 1.39702H13.8281L15.2118 5.42877M13.8281 9.90849C13.4612 9.90849 13.1092 9.7669 12.8498 9.51486C12.5903 9.26283 12.4445 8.921 12.4445 8.56457C12.4445 8.20814 12.5903 7.86631 12.8498 7.61428C13.1092 7.36224 13.4612 7.22065 13.8281 7.22065C14.1951 7.22065 14.547 7.36224 14.8065 7.61428C15.066 7.86631 15.2118 8.20814 15.2118 8.56457C15.2118 8.921 15.066 9.26283 14.8065 9.51486C14.547 9.7669 14.1951 9.90849 13.8281 9.90849ZM3.68139 9.90849C3.31443 9.90849 2.96249 9.7669 2.70301 9.51486C2.44352 9.26283 2.29774 8.921 2.29774 8.56457C2.29774 8.20814 2.44352 7.86631 2.70301 7.61428C2.96249 7.36224 3.31443 7.22065 3.68139 7.22065C4.04836 7.22065 4.4003 7.36224 4.65978 7.61428C4.91926 7.86631 5.06504 8.20814 5.06504 8.56457C5.06504 8.921 4.91926 9.26283 4.65978 9.51486C4.4003 9.7669 4.04836 9.90849 3.68139 9.90849ZM15.138 0.949045C14.9535 0.429397 14.4369 0.0531006 13.8281 0.0531006H3.68139C3.07259 0.0531006 2.55603 0.429397 2.37154 0.949045L0.452881 6.32471V13.4923C0.452881 13.7299 0.550065 13.9578 0.723055 14.1258C0.896044 14.2938 1.13067 14.3882 1.37531 14.3882H2.29774C2.54239 14.3882 2.77701 14.2938 2.95 14.1258C3.12299 13.9578 3.22018 13.7299 3.22018 13.4923V12.5963H14.2894V13.4923C14.2894 13.7299 14.3865 13.9578 14.5595 14.1258C14.7325 14.2938 14.9671 14.3882 15.2118 14.3882H16.1342C16.3789 14.3882 16.6135 14.2938 16.7865 14.1258C16.9595 13.9578 17.0567 13.7299 17.0567 13.4923V6.32471L15.138 0.949045Z" fill="#9A7153"/>
</svg>
