<svg width="17" height="19" viewBox="0 0 17 19" fill="none" xmlns="http://www.w3.org/2000/svg">
<path d="M15.7364 3.0626C15.4062 3.0626 15.0896 3.20824 14.8561 3.46747C14.6226 3.72671 14.4914 4.0783 14.4914 4.44491V8.59186H13.6614V2.60183C13.6614 2.23522 13.5302 1.88362 13.2967 1.62439C13.0633 1.36515 12.7466 1.21952 12.4164 1.21952C12.0862 1.21952 11.7695 1.36515 11.536 1.62439C11.3025 1.88362 11.1713 2.23522 11.1713 2.60183V8.59186H10.3413V1.68029C10.3413 1.31367 10.2102 0.962078 9.97667 0.702844C9.74319 0.44361 9.42651 0.297974 9.09631 0.297974C8.76611 0.297974 8.44943 0.44361 8.21595 0.702844C7.98246 0.962078 7.85129 1.31367 7.85129 1.68029V8.59186H7.02127V3.52337C7.02127 3.15676 6.8901 2.80516 6.65661 2.54593C6.42312 2.28669 6.10645 2.14106 5.77625 2.14106C5.44605 2.14106 5.12937 2.28669 4.89588 2.54593C4.66239 2.80516 4.53122 3.15676 4.53122 3.52337V13.4852L2.68859 10.1677C2.51468 9.85485 2.23597 9.63152 1.91375 9.54684C1.59154 9.46216 1.25223 9.52306 0.970455 9.71614C0.688683 9.90922 0.487536 10.2187 0.411264 10.5764C0.334991 10.9342 0.389841 11.3109 0.563747 11.6237L3.3111 16.5448C3.6829 17.2122 4.20209 17.7632 4.81943 18.1454C5.43678 18.5276 6.13182 18.7284 6.83867 18.7288H12.8314C13.9321 18.7288 14.9876 18.2434 15.7659 17.3793C16.5442 16.5151 16.9815 15.3432 16.9815 14.1211V4.44491C16.9815 4.0783 16.8503 3.72671 16.6168 3.46747C16.3833 3.20824 16.0666 3.0626 15.7364 3.0626Z" fill="#D774E0"/>
</svg>
