<svg width="22" height="19" viewBox="0 0 22 19" fill="none" xmlns="http://www.w3.org/2000/svg">
<path d="M13.3919 0.577589L13.3919 0.5776L13.3951 0.576171C13.5493 0.507399 13.7209 0.484419 13.8885 0.5104C14.0562 0.536378 14.2118 0.610013 14.3363 0.721346L14.3375 0.722371L21.2125 6.82926L21.2131 6.8298C21.3981 6.99361 21.5 7.22205 21.5 7.46477C21.5 7.70385 21.3965 7.9345 21.2112 8.10141C21.2109 8.10167 21.2106 8.10193 21.2103 8.10219L14.3388 14.206C14.3387 14.2061 14.3385 14.2063 14.3384 14.2064C14.0817 14.4325 13.713 14.4913 13.3904 14.3513C13.0742 14.2141 12.875 13.9062 12.875 13.5717V10.8575V10.3575H12.375H8.25C5.70272 10.3575 3.625 12.3988 3.625 14.9287C3.625 16.3813 4.25216 17.2493 4.73753 17.7029L4.73751 17.7029L4.74134 17.7064C4.92178 17.8715 5 18.0404 5 18.1645C5 18.3419 4.85027 18.5 4.65352 18.5C4.58935 18.5 4.55927 18.4884 4.54734 18.4818L4.54736 18.4818L4.54248 18.4792C3.78766 18.0728 0.5 16.0567 0.5 11.536C0.5 7.69618 3.65588 4.57206 7.5625 4.57206H12.375H12.875V4.07206V1.35788C12.875 1.02537 13.0767 0.715533 13.3919 0.577589Z" fill="white" stroke="#1C597C"/>
</svg>
