<svg width="22" height="19" viewBox="0 0 22 19" fill="none" xmlns="http://www.w3.org/2000/svg">
<path d="M13.1914 0.119544C12.6973 0.33583 12.375 0.823532 12.375 1.35788V4.07206H7.5625C3.38594 4.07206 0 7.41388 0 11.536C0 16.341 3.50195 18.4869 4.30547 18.9194C4.41289 18.9788 4.5332 19 4.65352 19C5.12188 19 5.5 18.6226 5.5 18.1645C5.5 17.8465 5.31523 17.5539 5.07891 17.3376C4.675 16.9601 4.125 16.218 4.125 14.9287C4.125 12.6811 5.97266 10.8575 8.25 10.8575H12.375V13.5717C12.375 14.106 12.693 14.5937 13.1914 14.81C13.6898 15.0263 14.2656 14.9372 14.6695 14.581L21.5445 8.4741C21.8324 8.21541 22 7.85069 22 7.46477C22 7.07885 21.8367 6.71413 21.5445 6.45544L14.6695 0.348552C14.4725 0.172457 14.2277 0.0569777 13.9651 0.0162953C13.7025 -0.0243871 13.4336 0.011498 13.1914 0.119544Z" fill="#1C597C"/>
</svg>
