<svg width="22" height="27" viewBox="0 0 22 27" fill="none" xmlns="http://www.w3.org/2000/svg">
<path fill-rule="evenodd" clip-rule="evenodd" d="M9.9858 26.6713L9.9924 26.6775L9.9968 26.6817C10.2855 26.8882 10.6378 27 11 27C11.3622 27 11.7145 26.8882 12.0032 26.6817L12.0076 26.6775L12.0142 26.6713L12.0406 26.6526C12.1822 26.5493 12.3216 26.4434 12.4586 26.3348C14.0989 25.0293 15.6059 23.5815 16.9598 22.0104C19.382 19.1815 22 15.0689 22 10.3852C22 7.63088 20.8411 4.98936 18.7782 3.04176C16.7153 1.09415 13.9174 0 11 0C8.08262 0 5.28473 1.09415 3.22183 3.04176C1.15893 4.98936 0 7.63088 0 10.3852C0 15.0689 2.618 19.1815 5.0424 22.0104C6.39634 23.5815 7.90334 25.0293 9.5436 26.3348L9.9594 26.6526L9.9858 26.6713ZM11 13.5008C11.4334 13.5008 11.8625 13.4202 12.2629 13.2636C12.6632 13.107 13.027 12.8775 13.3335 12.5882C13.6399 12.2989 13.883 11.9555 14.0488 11.5775C14.2146 11.1995 14.3 10.7943 14.3 10.3852C14.3 9.97606 14.2146 9.57093 14.0488 9.19293C13.883 8.81493 13.6399 8.47148 13.3335 8.18217C13.027 7.89286 12.6632 7.66337 12.2629 7.5068C11.8625 7.35023 11.4334 7.26964 11 7.26964C10.1248 7.26964 9.28542 7.59789 8.66655 8.18217C8.04768 8.76645 7.7 9.55891 7.7 10.3852C7.7 11.2115 8.04768 12.004 8.66655 12.5882C9.28542 13.1725 10.1248 13.5008 11 13.5008Z" fill="#1C597C"/>
</svg>
