<svg width="22" height="27" viewBox="0 0 22 27" fill="none" xmlns="http://www.w3.org/2000/svg">
<path d="M11 26.5C10.7506 26.5 10.5105 26.4261 10.3131 26.2927L10.3035 26.2836L10.2747 26.2632L10.2558 26.2498L9.85111 25.9405C8.23669 24.6552 6.75374 23.2303 5.42157 21.6845C3.0233 18.8859 0.5 14.8886 0.5 10.3852C0.5 7.77307 1.59883 5.26167 3.56507 3.40532C5.53229 1.54806 8.20624 0.5 11 0.5C13.7938 0.5 16.4677 1.54806 18.4349 3.40532C20.4012 5.26167 21.5 7.77307 21.5 10.3852C21.5 14.8887 18.9766 18.886 16.5804 21.6847C15.2474 23.2315 13.7634 24.6573 12.1477 25.9432C12.0169 26.0468 11.8839 26.148 11.7488 26.2466L11.7252 26.2632L11.6965 26.2836L11.6869 26.2927C11.4895 26.4261 11.2494 26.5 11 26.5ZM14.5067 11.7784L14.0488 11.5775L14.5067 11.7784C14.7 11.3376 14.8 10.8641 14.8 10.3852C14.8 9.90628 14.7 9.43279 14.5067 8.99205L14.0488 9.19293L14.5067 8.99205C14.3133 8.55138 14.0308 8.15292 13.6767 7.8186C13.3227 7.48434 12.9039 7.22061 12.445 7.04114C11.9861 6.86169 11.4952 6.76964 11 6.76964C10.0012 6.76964 9.03785 7.14399 8.3233 7.8186C7.60777 8.49414 7.2 9.41672 7.2 10.3852C7.2 11.3537 7.60777 12.2763 8.3233 12.9518C9.03785 13.6264 10.0012 14.0008 11 14.0008C11.4952 14.0008 11.9861 13.9087 12.445 13.7293C12.9039 13.5498 13.3227 13.2861 13.6767 12.9518C14.0308 12.6175 14.3133 12.219 14.5067 11.7784Z" fill="white" stroke="#1C597C"/>
</svg>
