<svg width="15" height="17" viewBox="0 0 15 17" fill="none" xmlns="http://www.w3.org/2000/svg">
<path d="M7.71703 0.0161133C6.1406 0.0161133 4.62873 0.637494 3.51402 1.74356C2.39931 2.84963 1.77308 4.34977 1.77308 5.91399V9.06083L0.499751 12.2247C0.45987 12.3241 0.445104 12.4316 0.456742 12.5379C0.46838 12.6443 0.506069 12.7461 0.566518 12.8347C0.626968 12.9232 0.708341 12.9958 0.803535 13.0459C0.898729 13.0961 1.00485 13.1224 1.11264 13.1225H14.3214C14.4292 13.1224 14.5353 13.0961 14.6305 13.0459C14.7257 12.9958 14.8071 12.9232 14.8675 12.8347C14.928 12.7461 14.9657 12.6443 14.9773 12.5379C14.989 12.4316 14.9742 12.3241 14.9343 12.2247L13.661 9.05952V5.91399C13.661 4.34977 13.0347 2.84963 11.92 1.74356C10.8053 0.637494 9.29347 0.0161133 7.71703 0.0161133ZM7.71703 16.3991C7.13125 16.3992 6.56203 16.2062 6.09889 15.8503C5.63574 15.4944 5.30494 14.9959 5.15849 14.4331H10.2756C10.1291 14.9959 9.79832 15.4944 9.33518 15.8503C8.87203 16.2062 8.30281 16.3992 7.71703 16.3991Z" fill="#E7B615"/>
</svg>
