<svg width="16" height="16" viewBox="0 0 16 16" fill="none" xmlns="http://www.w3.org/2000/svg">
<path d="M4.43125 6.75916C4.18571 6.75916 3.95022 6.8567 3.7766 7.03032C3.60297 7.20395 3.50543 7.43943 3.50543 7.68498C3.50543 7.93052 3.60297 8.166 3.7766 8.33963C3.95022 8.51325 4.18571 8.6108 4.43125 8.6108C4.6768 8.6108 4.91228 8.51325 5.08591 8.33963C5.25953 8.166 5.35707 7.93052 5.35707 7.68498C5.35707 7.43943 5.25953 7.20395 5.08591 7.03032C4.91228 6.8567 4.6768 6.75916 4.43125 6.75916ZM7.20871 7.68498C7.20871 7.43943 7.30625 7.20395 7.47988 7.03032C7.6535 6.8567 7.88899 6.75916 8.13453 6.75916C8.38008 6.75916 8.61556 6.8567 8.78919 7.03032C8.96281 7.20395 9.06035 7.43943 9.06035 7.68498C9.06035 7.93052 8.96281 8.166 8.78919 8.33963C8.61556 8.51325 8.38008 8.6108 8.13453 8.6108C7.88899 8.6108 7.6535 8.51325 7.47988 8.33963C7.30625 8.166 7.20871 7.93052 7.20871 7.68498ZM10.912 7.68498C10.912 7.43943 11.0095 7.20395 11.1832 7.03032C11.3568 6.8567 11.5923 6.75916 11.8378 6.75916C12.0834 6.75916 12.3188 6.8567 12.4925 7.03032C12.6661 7.20395 12.7636 7.43943 12.7636 7.68498C12.7636 7.93052 12.6661 8.166 12.4925 8.33963C12.3188 8.51325 12.0834 8.6108 11.8378 8.6108C11.5923 8.6108 11.3568 8.51325 11.1832 8.33963C11.0095 8.166 10.912 7.93052 10.912 7.68498Z" fill="black"/>
</svg>
