<svg width="28" height="27" viewBox="0 0 28 27" fill="none" xmlns="http://www.w3.org/2000/svg">
<g filter="url(#filter0_d_3_363)">
<path d="M22 7.063V1C22 0.734784 21.8946 0.48043 21.7071 0.292893C21.5196 0.105357 21.2652 0 21 0H20C18.021 1.979 14.303 3.087 12 3.613V14.387C14.303 14.913 18.021 16.021 20 18H21C21.2652 18 21.5196 17.8946 21.7071 17.7071C21.8946 17.5196 22 17.2652 22 17V10.937C22.4298 10.8265 22.8106 10.5762 23.0825 10.2255C23.3544 9.87488 23.502 9.44374 23.502 9C23.502 8.55626 23.3544 8.12512 23.0825 7.77445C22.8106 7.42378 22.4298 7.1735 22 7.063ZM6 4C5.46957 4 4.96086 4.21071 4.58579 4.58579C4.21071 4.96086 4 5.46957 4 6V12C4 12.5304 4.21071 13.0391 4.58579 13.4142C4.96086 13.7893 5.46957 14 6 14H7L8 19H10V4H6Z" fill="white"/>
<path d="M21.5 7.063V7.45071L21.8755 7.54725C22.1978 7.63012 22.4834 7.81784 22.6874 8.08084C22.8913 8.34384 23.002 8.66719 23.002 9C23.002 9.33281 22.8913 9.65616 22.6874 9.91916C22.4834 10.1822 22.1978 10.3699 21.8755 10.4528L21.5 10.5493V10.937V17C21.5 17.1326 21.4473 17.2598 21.3536 17.3536C21.2598 17.4473 21.1326 17.5 21 17.5H20.2026C19.1552 16.5132 17.7291 15.7572 16.3083 15.1848C14.9717 14.6463 13.6071 14.2575 12.5 13.9908V4.00924C13.6071 3.74248 14.9717 3.35367 16.3083 2.81515C17.7291 2.24275 19.1552 1.48681 20.2026 0.5H21C21.1326 0.5 21.2598 0.552679 21.3536 0.646446C21.4473 0.740214 21.5 0.867391 21.5 1V7.063ZM7.49029 13.9019L7.4099 13.5H7H6C5.60218 13.5 5.22064 13.342 4.93934 13.0607C4.65804 12.7794 4.5 12.3978 4.5 12V6C4.5 5.60218 4.65804 5.22064 4.93934 4.93934C5.22064 4.65804 5.60218 4.5 6 4.5H9.5V18.5H8.4099L7.49029 13.9019Z" stroke="#1C597C"/>
</g>
<defs>
<filter id="filter0_d_3_363" x="0" y="0" width="27.502" height="27" filterUnits="userSpaceOnUse" color-interpolation-filters="sRGB">
<feFlood flood-opacity="0" result="BackgroundImageFix"/>
<feColorMatrix in="SourceAlpha" type="matrix" values="0 0 0 0 0 0 0 0 0 0 0 0 0 0 0 0 0 0 127 0" result="hardAlpha"/>
<feOffset dy="4"/>
<feGaussianBlur stdDeviation="2"/>
<feComposite in2="hardAlpha" operator="out"/>
<feColorMatrix type="matrix" values="0 0 0 0 0 0 0 0 0 0 0 0 0 0 0 0 0 0 0.25 0"/>
<feBlend mode="normal" in2="BackgroundImageFix" result="effect1_dropShadow_3_363"/>
<feBlend mode="normal" in="SourceGraphic" in2="effect1_dropShadow_3_363" result="shape"/>
</filter>
</defs>
</svg>
