<svg width="20" height="19" viewBox="0 0 20 19" fill="none" xmlns="http://www.w3.org/2000/svg">
<path d="M17.5 7.063V7.45071L17.8755 7.54725C18.1978 7.63012 18.4834 7.81784 18.6874 8.08084C18.8913 8.34384 19.002 8.66719 19.002 9C19.002 9.33281 18.8913 9.65616 18.6874 9.91916C18.4834 10.1822 18.1978 10.3699 17.8755 10.4528L17.5 10.5493V10.937V17C17.5 17.1326 17.4473 17.2598 17.3536 17.3536C17.2598 17.4473 17.1326 17.5 17 17.5H16.2026C15.1552 16.5132 13.7291 15.7572 12.3083 15.1848C10.9717 14.6463 9.60711 14.2575 8.5 13.9908V4.00924C9.60711 3.74248 10.9717 3.35367 12.3083 2.81515C13.7291 2.24275 15.1552 1.48681 16.2026 0.5H17C17.1326 0.5 17.2598 0.552679 17.3536 0.646446C17.4473 0.740214 17.5 0.867391 17.5 1V7.063ZM3.49029 13.9019L3.4099 13.5H3H2C1.60218 13.5 1.22064 13.342 0.93934 13.0607C0.658035 12.7794 0.5 12.3978 0.5 12V6C0.5 5.60218 0.658035 5.22064 0.93934 4.93934C1.22064 4.65804 1.60218 4.5 2 4.5H5.5V18.5H4.4099L3.49029 13.9019Z" fill="white" stroke="#1C597C"/>
</svg>
