<svg width="72" height="77" viewBox="0 0 72 77" fill="none" xmlns="http://www.w3.org/2000/svg">
<g filter="url(#filter0_d_450_853)">
<path d="M4.20361 27.7408C4.20361 12.8496 16.23 0.777832 31.0652 0.777832H41.1383C55.9736 0.777832 67.9999 12.8496 67.9999 27.7408V41.2223C67.9999 56.1135 55.9736 68.1852 41.1383 68.1852H31.0652C16.23 68.1852 4.20361 56.1135 4.20361 41.2223V27.7408Z" fill="white"/>
</g>
<path d="M7.8147 28.463C7.8147 15.1672 18.4796 4.38892 31.6354 4.38892H40.5681C53.7239 4.38892 64.3888 15.1672 64.3888 28.463V40.5C64.3888 53.7958 53.7239 64.5741 40.5681 64.5741H31.6354C18.4796 64.5741 7.8147 53.7958 7.8147 40.5V28.463Z" fill="#9A7153"/>
<path d="M21.5904 30.5696L24.7 21.7675H47.5035L50.6131 30.5696M47.5035 40.3497C46.6788 40.3497 45.8879 40.0406 45.3047 39.4903C44.7215 38.9401 44.3939 38.1938 44.3939 37.4157C44.3939 36.6375 44.7215 35.8912 45.3047 35.341C45.8879 34.7908 46.6788 34.4816 47.5035 34.4816C48.3282 34.4816 49.1191 34.7908 49.7023 35.341C50.2854 35.8912 50.6131 36.6375 50.6131 37.4157C50.6131 38.1938 50.2854 38.9401 49.7023 39.4903C49.1191 40.0406 48.3282 40.3497 47.5035 40.3497ZM24.7 40.3497C23.8753 40.3497 23.0844 40.0406 22.5012 39.4903C21.918 38.9401 21.5904 38.1938 21.5904 37.4157C21.5904 36.6375 21.918 35.8912 22.5012 35.341C23.0844 34.7908 23.8753 34.4816 24.7 34.4816C25.5247 34.4816 26.3156 34.7908 26.8988 35.341C27.4819 35.8912 27.8096 36.6375 27.8096 37.4157C27.8096 38.1938 27.4819 38.9401 26.8988 39.4903C26.3156 40.0406 25.5247 40.3497 24.7 40.3497ZM50.4472 20.7895C50.0326 19.655 48.8717 18.8335 47.5035 18.8335H24.7C23.3318 18.8335 22.1709 19.655 21.7563 20.7895L17.4443 32.5256V48.1738C17.4443 48.6925 17.6627 49.1901 18.0515 49.5569C18.4403 49.9237 18.9676 50.1298 19.5174 50.1298H21.5904C22.1402 50.1298 22.6675 49.9237 23.0563 49.5569C23.4451 49.1901 23.6635 48.6925 23.6635 48.1738V46.2178H48.54V48.1738C48.54 48.6925 48.7584 49.1901 49.1472 49.5569C49.536 49.9237 50.0633 50.1298 50.6131 50.1298H52.6861C53.2359 50.1298 53.7632 49.9237 54.152 49.5569C54.5407 49.1901 54.7592 48.6925 54.7592 48.1738V32.5256L50.4472 20.7895Z" fill="white"/>
<defs>
<filter id="filter0_d_450_853" x="0.203613" y="0.777832" width="71.7964" height="75.4075" filterUnits="userSpaceOnUse" color-interpolation-filters="sRGB">
<feFlood flood-opacity="0" result="BackgroundImageFix"/>
<feColorMatrix in="SourceAlpha" type="matrix" values="0 0 0 0 0 0 0 0 0 0 0 0 0 0 0 0 0 0 127 0" result="hardAlpha"/>
<feOffset dy="4"/>
<feGaussianBlur stdDeviation="2"/>
<feComposite in2="hardAlpha" operator="out"/>
<feColorMatrix type="matrix" values="0 0 0 0 0 0 0 0 0 0 0 0 0 0 0 0 0 0 0.1 0"/>
<feBlend mode="normal" in2="BackgroundImageFix" result="effect1_dropShadow_450_853"/>
<feBlend mode="normal" in="SourceGraphic" in2="effect1_dropShadow_450_853" result="shape"/>
</filter>
</defs>
</svg>
