<svg width="72" height="76" viewBox="0 0 72 76" fill="none" xmlns="http://www.w3.org/2000/svg">
<g filter="url(#filter0_d_450_855)">
<path d="M4 26.963C4 12.0717 16.0263 0 30.8616 0H40.9347C55.7699 0 67.7963 12.0717 67.7963 26.963V40.4444C67.7963 55.3357 55.7699 67.4074 40.9347 67.4074H30.8616C16.0263 67.4074 4 55.3357 4 40.4444V26.963Z" fill="white"/>
</g>
<path d="M7.61108 27.6852C7.61108 14.3894 18.276 3.61108 31.4317 3.61108H40.3645C53.5203 3.61108 64.1852 14.3894 64.1852 27.6852V39.7222C64.1852 53.0179 53.5203 63.7963 40.3645 63.7963H31.4317C18.276 63.7963 7.61108 53.0179 7.61108 39.7222V27.6852Z" fill="#CB1F95"/>
<path d="M50.6441 20.2221C49.9259 20.2221 49.2372 20.5265 48.7294 21.0682C48.2216 21.61 47.9363 22.3448 47.9363 23.111V31.7777H46.1311V19.2592C46.1311 18.493 45.8458 17.7582 45.338 17.2164C44.8302 16.6746 44.1415 16.3703 43.4233 16.3703C42.7052 16.3703 42.0165 16.6746 41.5087 17.2164C41.0009 17.7582 40.7156 18.493 40.7156 19.2592V31.7777H38.9104V17.3332C38.9104 16.567 38.6251 15.8322 38.1173 15.2905C37.6095 14.7487 36.9208 14.4443 36.2026 14.4443C35.4845 14.4443 34.7958 14.7487 34.2879 15.2905C33.7801 15.8322 33.4949 16.567 33.4949 17.3332V31.7777H31.6897V21.1851C31.6897 20.4189 31.4044 19.6841 30.8966 19.1423C30.3888 18.6006 29.7001 18.2962 28.9819 18.2962C28.2638 18.2962 27.575 18.6006 27.0672 19.1423C26.5594 19.6841 26.2741 20.4189 26.2741 21.1851V42.0043L22.2666 35.071C21.8884 34.4172 21.2822 33.9505 20.5815 33.7735C19.8807 33.5965 19.1427 33.7238 18.5299 34.1273C17.9171 34.5308 17.4796 35.1775 17.3138 35.9252C17.1479 36.6728 17.2672 37.4602 17.6454 38.114L23.6205 48.3984C24.4291 49.7933 25.5583 50.9448 26.901 51.7436C28.2436 52.5424 29.7552 52.9621 31.2925 52.9629H44.3259C46.7198 52.9629 49.0155 51.9483 50.7082 50.1424C52.4009 48.3365 53.3518 45.8872 53.3518 43.3332V23.111C53.3518 22.3448 53.0666 21.61 52.5587 21.0682C52.0509 20.5265 51.3622 20.2221 50.6441 20.2221Z" fill="white"/>
<defs>
<filter id="filter0_d_450_855" x="0" y="0" width="71.7964" height="75.4075" filterUnits="userSpaceOnUse" color-interpolation-filters="sRGB">
<feFlood flood-opacity="0" result="BackgroundImageFix"/>
<feColorMatrix in="SourceAlpha" type="matrix" values="0 0 0 0 0 0 0 0 0 0 0 0 0 0 0 0 0 0 127 0" result="hardAlpha"/>
<feOffset dy="4"/>
<feGaussianBlur stdDeviation="2"/>
<feComposite in2="hardAlpha" operator="out"/>
<feColorMatrix type="matrix" values="0 0 0 0 0 0 0 0 0 0 0 0 0 0 0 0 0 0 0.1 0"/>
<feBlend mode="normal" in2="BackgroundImageFix" result="effect1_dropShadow_450_855"/>
<feBlend mode="normal" in="SourceGraphic" in2="effect1_dropShadow_450_855" result="shape"/>
</filter>
</defs>
</svg>
