<svg width="126" height="128" viewBox="0 0 126 128" fill="none" xmlns="http://www.w3.org/2000/svg">
<g filter="url(#filter0_d_1_23)">
<circle cx="60.8492" cy="60.5247" r="58.5775" fill="white"/>
</g>
<circle cx="60.8491" cy="60.5246" r="45.9431" fill="#257180"/>
<path fill-rule="evenodd" clip-rule="evenodd" d="M72.4952 107.158C72.4928 94.9784 72.3505 84.6748 65.0433 72.1046C64.7119 71.5342 64.3893 70.9899 64.0755 70.4695C67.5957 70.0885 70.9202 69.263 73.8157 67.821C76.8269 66.3213 79.4431 64.1174 81.2205 61.0354C82.9933 57.9617 83.7485 54.3328 83.5679 50.2737C83.3409 45.1698 81.8546 40.9267 79.1296 37.7159C76.4075 34.5086 72.7901 32.733 69.0255 31.9455C61.6975 30.4126 53.2105 32.4584 46.5645 35.6844L43.7576 37.0468L44.0139 40.1546C44.8508 50.3065 45.7949 56.0305 47.5105 60.4968C35.628 58.383 23.1528 53.6803 16.2401 49.7201L11.6985 57.5611C11.6905 57.5749 11.6825 57.5888 11.6745 57.6028C20.8845 62.8875 38.0529 69.0364 52.978 70.4349C53.0745 70.444 53.1711 70.4528 53.2677 70.4615C54.408 72.168 55.6845 74.1365 57.1628 76.6796C63.1592 86.9951 63.3741 95.1079 63.3813 107.158H72.4952ZM56.5652 58.5163C55.2296 55.6701 54.2614 51.8513 53.3838 42.6476C58.2138 40.7967 63.2819 40.0494 67.1583 40.8602C69.3806 41.3251 71.0325 42.2561 72.1791 43.6072C73.3229 44.9549 74.3049 47.1222 74.463 50.6781C74.5823 53.3597 74.0689 55.1963 73.3243 56.4874C72.5844 57.7704 71.4347 58.8307 69.7508 59.6692C67.0136 61.0324 63.1051 61.6841 58.3201 61.6171C57.608 60.5079 57.0507 59.551 56.5652 58.5163Z" fill="white"/>
<defs>
<filter id="filter0_d_1_23" x="0.271729" y="1.94717" width="125.155" height="125.155" filterUnits="userSpaceOnUse" color-interpolation-filters="sRGB">
<feFlood flood-opacity="0" result="BackgroundImageFix"/>
<feColorMatrix in="SourceAlpha" type="matrix" values="0 0 0 0 0 0 0 0 0 0 0 0 0 0 0 0 0 0 127 0" result="hardAlpha"/>
<feOffset dx="2" dy="4"/>
<feGaussianBlur stdDeviation="2"/>
<feComposite in2="hardAlpha" operator="out"/>
<feColorMatrix type="matrix" values="0 0 0 0 0 0 0 0 0 0 0 0 0 0 0 0 0 0 0.1 0"/>
<feBlend mode="normal" in2="BackgroundImageFix" result="effect1_dropShadow_1_23"/>
<feBlend mode="normal" in="SourceGraphic" in2="effect1_dropShadow_1_23" result="shape"/>
</filter>
</defs>
</svg>
